[img]http://img99.imageshack.us/img99/5451/hancock.jpg[/img]

[b][size=200][color=black]PLOT[/color][/size][/b]

[code]A hard-living superhero who has fallen out of favor with
the public enters into a questionable relationship with the wife 
of the public relations professional who's trying
to repair his image. [/code]

[b][size=200][color=black]IMDB[/color][/size][/b]

[code]http://www.imdb.com/title/tt0448157/[/code]

[b][size=200][color=black]MOVIE INFO[/color][/size][/b]

[code]Hancock [2008] DVDRip x264 AAC-V3nom

Format                                   : MPEG-4
Format profile                           : Base Media / Version 2
Codec ID                                 : mp42
File size                                : 349 MiB
Duration                                 : 1h 32mn
Overall bit rate mode                    : Variable
Overall bit rate                         : 529 Kbps
Encoded date                             : UTC 2012-11-12 18:13:27
Tagged date                              : UTC 2012-11-12 18:47:20

Video
ID                                       : 1
Format                                   : AVC
Format/Info                              : Advanced Video Codec
Format profile                           : Main@L2.1
Format settings, CABAC                   : Yes
Format settings, ReFrames                : 4 frames
Codec ID                                 : avc1
Codec ID/Info                            : Advanced Video Coding
Duration                                 : 1h 32mn
Bit rate mode                            : Variable
Bit rate                                 : 398 Kbps
Width                                    : 690 pixels
Height                                   : 284 pixels
Display aspect ratio                     : 2.40:1
Frame rate mode                          : Variable
Frame rate                               : 23.976 fps
Minimum frame rate                       : 23.974 fps
Maximum frame rate                       : 23.981 fps
Color space                              : YUV
Chroma subsampling                       : 4:2:0
Bit depth                                : 8 bits
Scan type                                : Progressive
Bits/(Pixel*Frame)                       : 0.085
Stream size                              : 261 MiB (75%)
Writing library                          : x264 

Audio
ID                                       : 2
Format                                   : AAC
Format/Info                              : Advanced Audio Codec
Format profile                           : LC
Codec ID                                 : 40
Duration                                 : 1h 32mn
Bit rate mode                            : Variable
Bit rate                                 : 128 Kbps
Maximum bit rate                         : 255 Kbps
Channel(s)                               : 2 channels
Channel positions                        : Front: L R
Sampling rate                            : 48.0 KHz
Compression mode                         : Lossy
Delay relative to video                  : 83ms
Stream size                              : 84.4 MiB (24%)
Encoded date                             : UTC 2012-11-12 18:13:27
Tagged date                              : UTC 2012-11-12 18:47:15[/code]

[b][size=200][color=black]SCREENSHOTS[/color][/size][/b]

[img]http://img846.imageshack.us/img846/2325/hancock2008dvdripx264aa.jpg[/img]

[img]http://kastatic.com/i2/users/133df62bbf28e62494bb17fe11078f1a.gif[/img][img]http://kastatic.com/i2/users/133df62bbf28e62494bb17fe11078f1a.gif[/img]